<svg xmlns="http://www.w3.org/2000/svg" viewBox="0 0 1524.63 196.77"><defs><style>.cls-1{fill:#8c1700;}.cls-2{fill:red;}</style></defs><g id="Layer_2" data-name="Layer 2"><g id="Layer_1-2" data-name="Layer 1"><path class="cls-1" d="M47.94,139.16a222.78,222.78,0,0,0,1.53,27.06c.65,6.11,2,12,2.83,18.11a3.37,3.37,0,0,0,.44,1.75,290.75,290.75,0,0,1-22.48-19.64C19.35,156,9.09,144.18,9.09,144.18a9.29,9.29,0,0,0,.88-2.62c3.93-12.22,5.89-25.75,8.29-39.06,2.4-13.1,4.8-27.06,7-39.94,2.4-14.4,3.71-28.37,5-42.34C43.79,36.37,51.87,46,57.1,52.52c-.87,4.58-1.74,9.17-2.4,13.53C69.33,53,80.89,36.59,92.68,20.88c0,.22,13.53,32.08,13.53,32.08C93.55,67.14,82.42,82.85,70.85,98.35c9.82,11.57,21.61,23.57,30.77,35.57,6.33,8.73,12,17.9,18.12,26.19,2.4,3.27,4.8,6.55,7,9.82a10.42,10.42,0,0,0,1.53,2.62c-1.75-.66-44.74-4.8-50.19-4.8H77.4c.22-.22.22-.22.22-.44,0-.44-.22-.87-.22-1.31a51.58,51.58,0,0,0-3.05-12c0-.22-.22-.22-.22-.44a48.79,48.79,0,0,0-5.68-11.13c-4.58-7.42-10-13.53-15.71-19.86-.65.88-1.53,1.75-2.18,2.62,0,0-.22-5.67-2-7.42C48.16,124.76,47.94,132.18,47.94,139.16Z"/><path class="cls-1" d="M133.93,196.77c-.44,0-17.9-60.88-17.9-62,.87-.65,1.31-1.52,3.49-3.92,7.86-9,14.84-21.61,24-37.1,13.75-23.35,28.37-50,42.12-77.69L192,37.68l21.39,13.75a597.74,597.74,0,0,0,20.73,103.22c3.49,11.35,5.68,17,6.77,21.61.43,2.18.43,3.05.87,3.49L199,152a11.22,11.22,0,0,0-.87,2.19c-1.31-1.75-4.81-2.84-7.21-3.71a88.39,88.39,0,0,0-13.31-3.71h-.22c-7.2-1.53-15-3.06-22-4.59C147.46,159.89,140.25,179.75,133.93,196.77ZM187.17,77.18c-6.76,12.22-13.31,24.88-19.42,37.76a80,80,0,0,0,9.6.65c2.62,0,3.71.22,8.08.22,0,0,3.27,0,6.33-.22C190.67,102.5,189.14,89.62,187.17,77.18Z"/><path class="cls-1" d="M324,111.44a28.49,28.49,0,0,1-4.15-.43,74.82,74.82,0,0,1-18.55,24.44V135c0-2-.22-10.47-2.83-17.46a63.9,63.9,0,0,0-8.3-15c.44-.66.88-1.1,1.31-1.75-5-2.62-10-5.46-14.62-7.86-1.53,9-3.27,17.46-5.24,26-1.31,5.46-10.25,55.22-10.47,55.22-.66,0-22.7-43-22.7-43.65,0-18.77,10.69-39.94,10.69-62.2a113.24,113.24,0,0,0-1.52-19,16.6,16.6,0,0,1-.44-4.8h-.87c-1.09,0-1.53-.44-1.53-1.1,0-2.18,5.67-7.85,17.24-16.8,12.44,2.62,18.77,4.58,18.77,5.89,0,.44-.22.66-1.09.88,3.71,4.8,6.54,11.56,8.51,16.36,4.14,9.17,8.07,19,12.66,27.72,3.27-10.48,5.89-21.61,9.82-31,3.92-8.73,8.29-17,12.44-25.1,2.4-4.58,11.13-8.29,13.31-11.34.22-.22.65-.44.65-.88.44,2,12,24.88,12.66,26,.22-3.49.22-3.71.22-4.14V19.57c.43,0,29.46,29.46,29.46,29.68,0,23.78-3.93,46.92-5,71.58-.66,14.4-1.53,28.59-1.53,42.77v22.7c0,.43-.22.87-.22,1.31,0,.21.22.43.22.65l-38.62-46.7c2.4-3.71,3.49-8.95,4.58-13.31A422.43,422.43,0,0,0,349.1,56c-7.85,4.59-12,12.88-15.71,21.61-4.14,10-7.64,20.51-12.44,31A12.52,12.52,0,0,0,324,111.44Z"/><path class="cls-1" d="M400.17,196.77c-.43,0-17.89-60.88-17.89-62,.87-.65,1.31-1.52,3.49-3.92,7.86-9,14.84-21.61,24-37.1,13.75-23.35,28.38-50,42.12-77.69l6.33,21.6,21.39,13.75a596.8,596.8,0,0,0,20.73,103.22c3.49,11.35,5.68,17,6.77,21.61.43,2.18.43,3.05.87,3.49L465.21,152a11.78,11.78,0,0,0-.88,2.19c-1.31-1.75-4.8-2.84-7.2-3.71a88.73,88.73,0,0,0-13.31-3.71h-.22c-7.2-1.53-15.06-3.06-22-4.59C413.7,159.89,406.5,179.75,400.17,196.77ZM453.42,77.18c-6.76,12.22-13.31,24.88-19.42,37.76a80,80,0,0,0,9.6.65c2.62,0,3.71.22,8.08.22,0,0,3.27,0,6.32-.22C456.91,102.5,455.39,89.62,453.42,77.18Z"/><path class="cls-1" d="M542.24,139.16a222.78,222.78,0,0,0,1.53,27.06c.66,6.11,2,12,2.84,18.11a3.37,3.37,0,0,0,.44,1.75,290.75,290.75,0,0,1-22.48-19.64C513.66,156,503.4,144.18,503.4,144.18a9.28,9.28,0,0,0,.87-2.62c3.93-12.22,5.89-25.75,8.3-39.06,2.4-13.1,4.8-27.06,7-39.94,2.4-14.4,3.71-28.37,5-42.34,13.53,16.15,21.6,25.75,26.84,32.3-.87,4.58-1.75,9.17-2.4,13.53C563.63,53,575.2,36.59,587,20.88,587,21.1,600.51,53,600.51,53c-12.66,14.18-23.78,29.89-35.35,45.39,9.82,11.57,21.6,23.57,30.77,35.57,6.33,8.73,12,17.9,18.11,26.19,2.4,3.27,4.8,6.55,7,9.82a10.4,10.4,0,0,0,1.52,2.62c-1.74-.66-44.73-4.8-50.19-4.8h-.65c.21-.22.21-.22.21-.44,0-.44-.21-.87-.21-1.31a51.09,51.09,0,0,0-3.06-12c0-.22-.22-.22-.22-.44a48.74,48.74,0,0,0-5.67-11.13c-4.58-7.42-10-13.53-15.71-19.86-.66.88-1.53,1.75-2.19,2.62,0,0-.21-5.67-2-7.42C542.46,124.76,542.24,132.18,542.24,139.16Z"/><path class="cls-1" d="M649,109c0,14.41,2.19,26.85,8.3,36.67l.65.65c5.24-4.36,8.51-13.31,10.69-21.17C676,91.58,680.61,54.7,690,22c.87-3.06,2-5.68,2.62-8.73,0,0,2.84,24.66,8.07,47.36,5.24,22.91,11.57,45.82,11.57,45.82-3.71,7.64-6.33,16.15-9.17,24.66-1.74,5.24-3.27,10.48-5.89,15.5a72.35,72.35,0,0,1-20.73,25.53c-4.36,3.71-11.35,6.55-19.86,6.55a21,21,0,0,1-3.71-.22c-10-2.84-17.68-8.73-21.17-16.37a88.16,88.16,0,0,1-11.13-35.57,181.71,181.71,0,0,1-1.09-18.77c0-24.66,4.58-49.1,4.58-72a123.12,123.12,0,0,0-.65-12.88,233.94,233.94,0,0,1,15.06,27.5c6.76,14.62,12.66,29.24,12.66,29.24A257.88,257.88,0,0,0,649,109Z"/><path class="cls-1" d="M762.66,183.46v3.06c0,.21.22.21.22.43l-40.37-33.82c2-2.4,3-7,3.93-10l1.31-5.24v-.22a113.73,113.73,0,0,0,2.61-24.44c0-17.24-3.27-34.7-6.32-49.32.21,0,33.39,15.71,33.39,15.71l2,21.61c.87-2.84,1.75-5.46,2.4-8.08a67.91,67.91,0,0,0,1.31-11.56v-.66a5.15,5.15,0,0,0,2-.44,24.88,24.88,0,0,0,12-8.29c1.74-2.62,3-4.36,3-5.67a1.67,1.67,0,0,0,.44-1.09c0-1.53-2.18-3.71-3.71-5.46-7.86-7.86-19.42-10-32.52-10-11.35,0-23.57,1.53-35.35,2.4.22-.22,29-32.51,30.11-32.51,20.95,0,37.76,3.27,55.22,15.27,7.63,5,14,13.75,16.8,24.88a47.38,47.38,0,0,1,.66,7.86,38.92,38.92,0,0,1-4.15,18.11,77.57,77.57,0,0,1-22.92,28.15c5.46,6.11,11.79,12,17.68,17.46,7.42,6.77,14.84,14,22.7,20.73,2.62,2.4,5.45,4.8,8.07,7.42a9.52,9.52,0,0,0,2.18,2c-1.52,0-46.7,7-48.88,8.51v-.44c-.87-4.36-3.71-8.73-5.89-12.22-5.68-8.73-12.88-17-19.42-25.31,0,1.3.21,2.4.21,3.71v.87C761.57,152.47,761.79,168.4,762.66,183.46Z"/><path class="cls-1" d="M841.66,196.77c-.43,0-17.89-60.88-17.89-62,.87-.65,1.31-1.52,3.49-3.92,7.86-9,14.84-21.61,24-37.1,13.75-23.35,28.37-50,42.12-77.69l6.32,21.6L921.1,51.43a596.8,596.8,0,0,0,20.73,103.22c3.49,11.35,5.68,17,6.77,21.61.43,2.18.43,3.05.87,3.49L906.7,152a11.78,11.78,0,0,0-.88,2.19c-1.31-1.75-4.8-2.84-7.2-3.71a88.73,88.73,0,0,0-13.31-3.71h-.22c-7.2-1.53-15.06-3.06-22-4.59C855.19,159.89,848,179.75,841.66,196.77ZM894.91,77.18c-6.76,12.22-13.31,24.88-19.42,37.76a80,80,0,0,0,9.6.65c2.62,0,3.71.22,8.08.22,0,0,3.27,0,6.33-.22C898.4,102.5,896.88,89.62,894.91,77.18Z"/><path class="cls-1" d="M1024.55,135.67c-7-4.15-17.24-5.24-26.63-6.33a246.11,246.11,0,0,0-29-2,256.1,256.1,0,0,0-26,1.53l17-31c8.07.22,15.93.22,23.79.22,8.29,0,16.58,0,24.66-.44,10.47-.43,20.95-.65,31.2-1.74a126.19,126.19,0,0,1,13.1-1.09c.22,0,1.09.22,1.31,0-1.31,1.53-28.81,40.59-29,41.24C1025,135.89,1024.55,135.67,1024.55,135.67Z"/><path class="cls-1" d="M1113.15,56.67v.22c-14.84,7.63-26,29-26,49.53,0,19.43,9.17,35.36,22.26,39.07h.22c4.14-11.13,6.33-22.7,12.44-31.65-8.08-2.61-16.37-4.8-23.35-10.25,9.6,0,24.87-16.37,28.58-19.43,15.72,6.55,25.1,7.21,30.56,23.14-.22,9.38-2.19,15.27-5.9,17.46-3.92.87-4.8,7.85-5.45,12.22v.21c0,1.1-.22,3.28-.22,4.59,0,7.85.22,13.53.22,20.29v10.26c0,3.49-.66,6.55-.66,8.73,0,.22.22.22.22.44h-.22c-6.54-6.55-17.89-16.59-22.69-20.08-10.7,5.89-20.3,8.73-30.12,8.73-6.11,0-16.8-2-21.6-3.93-11.79-20.08-16.37-35.14-16.37-53.47,0-31.2,15.93-63.28,39.5-79.65,7.64-5.24,15.06-7.86,22.91-7.86H1119a33.52,33.52,0,0,1,23.35,13.31c-2.83-1.31-7.42-2-11.56-2C1117.51,36.59,1113.15,42.7,1113.15,56.67Z"/><path class="cls-1" d="M1174.69,196.77c-.43,0-17.89-60.88-17.89-62,.87-.65,1.31-1.52,3.49-3.92,7.85-9,14.84-21.61,24-37.1,13.75-23.35,28.37-50,42.12-77.69l6.33,21.6,21.39,13.75a596.8,596.8,0,0,0,20.73,103.22c3.49,11.35,5.67,17,6.76,21.61.44,2.18.44,3.05.88,3.49L1239.72,152a12.1,12.1,0,0,0-.87,2.19c-1.31-1.75-4.8-2.84-7.2-3.71a88.73,88.73,0,0,0-13.31-3.71h-.22c-7.2-1.53-15.06-3.06-22-4.59C1188.22,159.89,1181,179.75,1174.69,196.77Zm53.25-119.59c-6.77,12.22-13.31,24.88-19.42,37.76a80,80,0,0,0,9.6.65c2.62,0,3.71.22,8.07.22,0,0,3.28,0,6.33-.22C1231.43,102.5,1229.9,89.62,1227.94,77.18Z"/><path class="cls-1" d="M1316.76,139.16a222.78,222.78,0,0,0,1.53,27.06c.66,6.11,2,12,2.84,18.11a3.48,3.48,0,0,0,.43,1.75,291.7,291.7,0,0,1-22.47-19.64c-10.91-10.48-21.17-22.26-21.17-22.26a9.28,9.28,0,0,0,.87-2.62c3.93-12.22,5.89-25.75,8.29-39.06,2.4-13.1,4.81-27.06,7-39.94,2.4-14.4,3.71-28.37,5-42.34,13.53,16.15,21.6,25.75,26.84,32.3-.87,4.58-1.75,9.17-2.4,13.53,14.62-13.09,26.19-29.46,38-45.17C1361.5,21.1,1375,53,1375,53c-12.66,14.18-23.79,29.89-35.35,45.39,9.82,11.57,21.6,23.57,30.77,35.57,6.33,8.73,12,17.9,18.11,26.19,2.4,3.27,4.8,6.55,7,9.82a10.4,10.4,0,0,0,1.52,2.62c-1.74-.66-44.73-4.8-50.19-4.8h-.65c.21-.22.21-.22.21-.44,0-.44-.21-.87-.21-1.31a51.09,51.09,0,0,0-3.06-12c0-.22-.22-.22-.22-.44a48.74,48.74,0,0,0-5.67-11.13c-4.59-7.42-10-13.53-15.72-19.86-.65.88-1.52,1.75-2.18,2.62,0,0-.22-5.67-2-7.42C1317,124.76,1316.76,132.18,1316.76,139.16Z"/><path class="cls-1" d="M1410.82,167.09c-7.63-7-14.4-13.09-16.14-14.84,4.58-8.73,6.32-20.29,7.63-31.86a228.3,228.3,0,0,0,1.53-24.66,155.43,155.43,0,0,0-4.58-37.1c-3.28.87-6.55,2-9.82,2.84l8.07-33.39c14.62-2.4,29.68-5.24,45.83-6.33,9.17-.44,18.33-.87,27.28-2,3.71-.44,7.42-1.31,11.35-1.31a2.77,2.77,0,0,0,1.31-.22v.22l-24.44,41.68c-3.5-3.06-10-4.15-15.06-5.24a52.63,52.63,0,0,0-12.22-1.31c-11.35,0-20.52,2-29.68,4.37,7.64,3.49,26.4,13.75,29.89,16.15,7.21-1.1,14.84-1.1,21.83-2.62a33.81,33.81,0,0,1,6.55-1.09c.43,0,.43,0,.65-.22,0,0-12,41.24-12,41.46-2.62-3.49-7.86-5.45-12.44-6.55a6.76,6.76,0,0,0-2.84-1.3c.22,16.14.44,32.73.44,49.1,3,.22,6.33.22,9.6.22a242.69,242.69,0,0,0,28.37-1.31l7.86-.66h1.31a1.31,1.31,0,0,0,.87-.22c-.22.66-19.86,40.38-20.08,40.81-6.33-5.67-17-7.42-27.06-8.95v5.9c-1.75-1.53-4.15-3.93-7.42-6.77-2.18-.22-4.8-.43-7.2-.43-4.8,0-9.6.43-14.4.87C1405.81,182.15,1408.21,174.73,1410.82,167.09Z"/><path class="cls-2" d="M38.85,130.07a222.78,222.78,0,0,0,1.52,27.06c.66,6.11,2,12,2.84,18.11a3.4,3.4,0,0,0,.44,1.75,290.75,290.75,0,0,1-22.48-19.64C10.26,146.87,0,135.09,0,135.09a9.28,9.28,0,0,0,.87-2.62c3.93-12.22,5.9-25.75,8.3-39.07,2.4-13.09,4.8-27.06,7-39.93,2.4-14.41,3.71-28.37,5-42.34C34.7,27.28,42.77,36.88,48,43.43,47.14,48,46.27,52.59,45.61,57c14.62-13.1,26.19-29.46,38-45.18,0,.22,13.53,32.08,13.53,32.08-12.65,14.19-23.78,29.9-35.35,45.4,9.82,11.56,21.6,23.57,30.77,35.57,6.33,8.73,12,17.89,18.11,26.19,2.4,3.27,4.8,6.54,7,9.82a10.16,10.16,0,0,0,1.52,2.61c-1.74-.65-44.73-4.8-50.19-4.8h-.65c.21-.21.21-.21.21-.43,0-.44-.21-.87-.21-1.31a51,51,0,0,0-3.06-12c0-.22-.22-.22-.22-.44a48.74,48.74,0,0,0-5.67-11.13c-4.58-7.42-10-13.53-15.71-19.86-.66.87-1.53,1.75-2.19,2.62,0,0-.21-5.67-2-7.42C39.06,115.66,38.85,123.08,38.85,130.07Z"/><path class="cls-2" d="M124.83,187.68c-.43,0-17.89-60.89-17.89-62,.87-.65,1.31-1.53,3.49-3.93,7.85-8.94,14.84-21.6,24-37.1C148.18,61.32,162.8,34.7,176.55,7l6.33,21.61,21.39,13.75A596.8,596.8,0,0,0,225,145.56c3.49,11.35,5.67,17,6.76,21.61.44,2.18.44,3.05.88,3.49l-42.78-27.72a12.21,12.21,0,0,0-.87,2.18c-1.31-1.74-4.8-2.83-7.2-3.71a89.93,89.93,0,0,0-13.31-3.71h-.22c-7.2-1.52-15.06-3-22-4.58C138.36,150.8,131.16,170.66,124.83,187.68ZM178.08,68.09c-6.77,12.22-13.31,24.88-19.42,37.75a78.12,78.12,0,0,0,9.6.66c2.62,0,3.71.22,8.07.22,0,0,3.28,0,6.33-.22C181.57,93.4,180,80.53,178.08,68.09Z"/><path class="cls-2" d="M314.91,102.35a27.81,27.81,0,0,1-4.14-.44,75,75,0,0,1-18.55,24.45v-.44c0-2-.22-10.48-2.84-17.46a63.85,63.85,0,0,0-8.29-15.06c.43-.65.87-1.09,1.31-1.74-5-2.62-10-5.46-14.62-7.86-1.53,9-3.28,17.46-5.24,26-1.31,5.46-10.26,55.21-10.48,55.21-.65,0-22.69-43-22.69-43.64,0-18.77,10.69-39.94,10.69-62.2a113.38,113.38,0,0,0-1.53-19,16.66,16.66,0,0,1-.43-4.8h-.88c-1.09,0-1.52-.43-1.52-1.09,0-2.18,5.67-7.85,17.24-16.8,12.44,2.62,18.76,4.58,18.76,5.89,0,.44-.21.66-1.09.87,3.71,4.8,6.55,11.57,8.51,16.37,4.15,9.17,8.08,19,12.66,27.72,3.28-10.48,5.89-21.61,9.82-31,3.93-8.73,8.3-17,12.44-25.1,2.4-4.58,11.13-8.29,13.31-11.35.22-.22.66-.43.66-.87.43,2,12,24.88,12.66,26,.21-3.49.21-3.71.21-4.15V10.48c.44,0,29.47,29.46,29.47,29.67,0,23.79-3.93,46.92-5,71.58-.66,14.41-1.53,28.59-1.53,42.78V177.2c0,.44-.22.88-.22,1.31,0,.22.22.44.22.66l-38.63-46.7c2.4-3.71,3.49-9,4.58-13.32A423.28,423.28,0,0,0,340,46.92c-7.86,4.58-12,12.88-15.71,21.6-4.15,10-7.64,20.52-12.44,31A12.35,12.35,0,0,0,314.91,102.35Z"/><path class="cls-2" d="M391.08,187.68c-.44,0-17.9-60.89-17.9-62,.88-.65,1.31-1.53,3.5-3.93,7.85-8.94,14.84-21.6,24-37.1C414.43,61.32,429.05,34.7,442.8,7l6.33,21.61,21.38,13.75a597.68,597.68,0,0,0,20.74,103.22c3.49,11.35,5.67,17,6.76,21.61.44,2.18.44,3.05.87,3.49l-42.77-27.72a12.21,12.21,0,0,0-.87,2.18c-1.31-1.74-4.8-2.83-7.2-3.71a90.08,90.08,0,0,0-13.32-3.71h-.21c-7.2-1.52-15.06-3-22-4.58C404.61,150.8,397.41,170.66,391.08,187.68ZM444.33,68.09C437.56,80.31,431,93,424.9,105.84a78.4,78.4,0,0,0,9.61.66c2.62,0,3.71.22,8.07.22,0,0,3.27,0,6.33-.22C447.82,93.4,446.29,80.53,444.33,68.09Z"/><path class="cls-2" d="M533.15,130.07a222.78,222.78,0,0,0,1.53,27.06c.65,6.11,2,12,2.84,18.11A3.41,3.41,0,0,0,538,177a292.9,292.9,0,0,1-22.48-19.64c-10.91-10.48-21.16-22.26-21.16-22.26a9.61,9.61,0,0,0,.87-2.62c3.93-12.22,5.89-25.75,8.29-39.07,2.4-13.09,4.8-27.06,7-39.93,2.4-14.41,3.71-28.37,5-42.34,13.53,16.15,21.61,25.75,26.85,32.3-.88,4.58-1.75,9.16-2.4,13.53,14.62-13.1,26.18-29.46,38-45.18,0,.22,13.53,32.08,13.53,32.08-12.66,14.19-23.79,29.9-35.36,45.4,9.83,11.56,21.61,23.57,30.78,35.57,6.32,8.73,12,17.89,18.11,26.19,2.4,3.27,4.8,6.54,7,9.82a10.19,10.19,0,0,0,1.53,2.61c-1.75-.65-44.74-4.8-50.19-4.8h-.66c.22-.21.22-.21.22-.43,0-.44-.22-.87-.22-1.31a50.48,50.48,0,0,0-3.05-12c0-.22-.22-.22-.22-.44a48.79,48.79,0,0,0-5.68-11.13c-4.58-7.42-10-13.53-15.71-19.86-.65.87-1.53,1.75-2.18,2.62,0,0-.22-5.67-2-7.42C533.37,115.66,533.15,123.08,533.15,130.07Z"/><path class="cls-2" d="M639.87,100c0,14.4,2.18,26.84,8.29,36.66l.66.66c5.23-4.37,8.51-13.31,10.69-21.17,7.42-33.61,12-70.49,21.39-103.22.87-3.06,2-5.68,2.62-8.73,0,0,2.83,24.66,8.07,47.35,5.24,22.92,11.57,45.83,11.57,45.83C699.45,105,696.83,113.48,694,122c-1.75,5.24-3.27,10.48-5.89,15.5A72.43,72.43,0,0,1,667.37,163c-4.37,3.71-11.35,6.55-19.86,6.55a21,21,0,0,1-3.71-.22c-10-2.84-17.68-8.73-21.17-16.37a88.16,88.16,0,0,1-11.13-35.57,179,179,0,0,1-1.09-18.77c0-24.66,4.58-49.1,4.58-72a125.86,125.86,0,0,0-.65-12.87,233.06,233.06,0,0,1,15,27.5c6.77,14.62,12.66,29.24,12.66,29.24A260,260,0,0,0,639.87,100Z"/><path class="cls-2" d="M753.57,174.37v3c0,.22.22.22.22.44L713.41,144c2-2.4,3.06-7,3.93-10l1.31-5.23v-.22a113.1,113.1,0,0,0,2.62-24.44c0-17.24-3.27-34.7-6.33-49.32.22,0,33.39,15.71,33.39,15.71l2,21.6c.87-2.83,1.74-5.45,2.4-8.07A67.89,67.89,0,0,0,754,72.45V71.8a5.19,5.19,0,0,0,2-.44,24.88,24.88,0,0,0,12-8.29c1.75-2.62,3.06-4.37,3.06-5.67a1.68,1.68,0,0,0,.43-1.1c0-1.52-2.18-3.71-3.71-5.45-7.85-7.86-19.42-10-32.51-10-11.35,0-23.57,1.53-35.36,2.4.22-.22,29-32.52,30.12-32.52,21,0,37.75,3.28,55.21,15.28,7.64,5,14,13.75,16.81,24.88a48.43,48.43,0,0,1,.65,7.85,38.93,38.93,0,0,1-4.15,18.12A77.44,77.44,0,0,1,775.61,105c5.46,6.11,11.79,12,17.68,17.46,7.42,6.76,14.84,14,22.69,20.73,2.62,2.4,5.46,4.8,8.08,7.42a9.28,9.28,0,0,0,2.18,2c-1.53,0-46.7,7-48.88,8.51v-.43c-.88-4.37-3.71-8.73-5.9-12.22-5.67-8.73-12.87-17-19.42-25.32,0,1.31.22,2.4.22,3.71v.88C752.48,143.38,752.7,159.31,753.57,174.37Z"/><path class="cls-2" d="M832.57,187.68c-.44,0-17.9-60.89-17.9-62,.88-.65,1.31-1.53,3.5-3.93,7.85-8.94,14.84-21.6,24-37.1,13.75-23.35,28.37-50,42.12-77.69l6.33,21.61L912,42.34a596.8,596.8,0,0,0,20.73,103.22c3.49,11.35,5.67,17,6.76,21.61.44,2.18.44,3.05.88,3.49L897.6,142.94a12.21,12.21,0,0,0-.87,2.18c-1.31-1.74-4.8-2.83-7.2-3.71a90.28,90.28,0,0,0-13.31-3.71H876c-7.2-1.52-15.06-3-22-4.58C846.1,150.8,838.9,170.66,832.57,187.68ZM885.82,68.09C879.05,80.31,872.51,93,866.4,105.84a78.12,78.12,0,0,0,9.6.66c2.62,0,3.71.22,8.07.22,0,0,3.28,0,6.33-.22C889.31,93.4,887.78,80.53,885.82,68.09Z"/><path class="cls-2" d="M1015.45,126.57c-7-4.14-17.24-5.23-26.62-6.32a244.16,244.16,0,0,0-29-2,256.1,256.1,0,0,0-26,1.53l17-31c8.08.22,15.93.22,23.79.22,8.29,0,16.59,0,24.66-.44,10.48-.43,21-.65,31.21-1.74a126,126,0,0,1,13.09-1.09c.22,0,1.09.21,1.31,0-1.31,1.52-28.81,40.59-29,41.24C1015.89,126.79,1015.45,126.57,1015.45,126.57Z"/><path class="cls-2" d="M1104.06,47.57v.22c-14.84,7.64-26,29-26,49.54,0,19.42,9.16,35.36,22.26,39.06h.21c4.15-11.12,6.33-22.69,12.44-31.64-8.07-2.62-16.36-4.8-23.35-10.26,9.6,0,24.88-16.36,28.59-19.42,15.71,6.55,25.1,7.2,30.55,23.13-.22,9.39-2.18,15.28-5.89,17.46-3.93.88-4.8,7.86-5.46,12.22v.22c0,1.09-.21,3.28-.21,4.59,0,7.85.21,13.52.21,20.29v10.26c0,3.49-.65,6.54-.65,8.73,0,.22.22.22.22.43h-.22c-6.55-6.54-17.89-16.58-22.7-20.07-10.69,5.89-20.29,8.72-30.11,8.72-6.11,0-16.81-2-21.61-3.92C1050.59,137.05,1046,122,1046,103.66c0-31.21,15.93-63.29,39.5-79.65,7.63-5.24,15-7.86,22.91-7.86H1110a33.5,33.5,0,0,1,23.35,13.31c-2.84-1.31-7.42-2-11.57-2C1108.42,27.5,1104.06,33.61,1104.06,47.57Z"/><path class="cls-2" d="M1165.6,187.68c-.44,0-17.9-60.89-17.9-62,.88-.65,1.31-1.53,3.49-3.93,7.86-8.94,14.84-21.6,24-37.1,13.75-23.35,28.37-50,42.12-77.69l6.33,21.61L1245,42.34a596.73,596.73,0,0,0,20.74,103.22c3.49,11.35,5.67,17,6.76,21.61.44,2.18.44,3.05.87,3.49l-42.77-27.72a12.21,12.21,0,0,0-.87,2.18c-1.31-1.74-4.8-2.83-7.2-3.71a90.08,90.08,0,0,0-13.32-3.71H1209c-7.21-1.52-15.06-3-22-4.58C1179.13,150.8,1171.93,170.66,1165.6,187.68Zm53.25-119.59c-6.77,12.22-13.32,24.88-19.43,37.75a78.4,78.4,0,0,0,9.61.66c2.61,0,3.71.22,8.07.22,0,0,3.27,0,6.33-.22C1222.34,93.4,1220.81,80.53,1218.85,68.09Z"/><path class="cls-2" d="M1307.67,130.07a222.78,222.78,0,0,0,1.53,27.06c.65,6.11,2,12,2.83,18.11a3.4,3.4,0,0,0,.44,1.75A290.75,290.75,0,0,1,1290,157.35c-10.91-10.48-21.17-22.26-21.17-22.26a9.29,9.29,0,0,0,.88-2.62c3.93-12.22,5.89-25.75,8.29-39.07,2.4-13.09,4.8-27.06,7-39.93,2.4-14.41,3.71-28.37,5-42.34,13.53,16.15,21.61,25.75,26.85,32.3-.88,4.58-1.75,9.16-2.4,13.53,14.62-13.1,26.18-29.46,38-45.18,0,.22,13.53,32.08,13.53,32.08-12.66,14.19-23.79,29.9-35.36,45.4,9.82,11.56,21.61,23.57,30.77,35.57,6.33,8.73,12,17.89,18.12,26.19,2.4,3.27,4.8,6.54,7,9.82a10.19,10.19,0,0,0,1.53,2.61c-1.75-.65-44.74-4.8-50.19-4.8h-.66c.22-.21.22-.21.22-.43,0-.44-.22-.87-.22-1.31a51,51,0,0,0-3.05-12c0-.22-.22-.22-.22-.44a48.79,48.79,0,0,0-5.68-11.13c-4.58-7.42-10-13.53-15.71-19.86-.65.87-1.53,1.75-2.18,2.62,0,0-.22-5.67-2-7.42C1307.89,115.66,1307.67,123.08,1307.67,130.07Z"/><path class="cls-2" d="M1401.73,158c-7.64-7-14.4-13.09-16.15-14.84,4.58-8.73,6.33-20.3,7.64-31.86a231,231,0,0,0,1.53-24.66,155.43,155.43,0,0,0-4.59-37.1c-3.27.87-6.54,2-9.82,2.84L1388.42,19c14.62-2.4,29.68-5.24,45.83-6.33,9.16-.44,18.33-.88,27.28-2,3.71-.43,7.42-1.31,11.34-1.31a2.85,2.85,0,0,0,1.31-.21v.21l-24.44,41.69c-3.49-3.06-10-4.15-15.06-5.24a52.57,52.57,0,0,0-12.22-1.31c-11.35,0-20.51,2-29.68,4.36,7.64,3.5,26.41,13.75,29.9,16.15,7.2-1.09,14.84-1.09,21.82-2.62a34.86,34.86,0,0,1,6.55-1.09c.44,0,.44,0,.66-.22,0,0-12,41.25-12,41.47-2.62-3.49-7.85-5.46-12.44-6.55a6.81,6.81,0,0,0-2.83-1.31c.22,16.15.43,32.74.43,49.1,3.06.22,6.33.22,9.61.22a242.69,242.69,0,0,0,28.37-1.31l7.85-.65H1472a1.28,1.28,0,0,0,.87-.22c-.21.66-19.85,40.37-20.07,40.81-6.33-5.67-17-7.42-27.06-8.95v5.89c-1.75-1.52-4.15-3.92-7.42-6.76-2.19-.22-4.8-.44-7.21-.44-4.8,0-9.6.44-14.4.88C1396.71,173.06,1399.11,165.64,1401.73,158Z"/><path class="cls-2" d="M1499.69,24.18a13.67,13.67,0,0,1,1.64-6.59,12.29,12.29,0,0,1,4.56-4.79,12.14,12.14,0,0,1,12.56,0,12.24,12.24,0,0,1,4.54,4.79,14.07,14.07,0,0,1,.06,13.07,12.42,12.42,0,0,1-4.49,4.86,12,12,0,0,1-12.76,0,12.57,12.57,0,0,1-4.51-4.84A13.71,13.71,0,0,1,1499.69,24.18Zm1.5,0a12.17,12.17,0,0,0,1.44,5.81,11,11,0,0,0,4,4.28,10.46,10.46,0,0,0,10.94,0,11.21,11.21,0,0,0,4.05-4.23,12.34,12.34,0,0,0,0-11.72,11,11,0,0,0-4-4.23,10.5,10.5,0,0,0-11.06,0,11,11,0,0,0-4,4.25A12,12,0,0,0,1501.19,24.19Zm16.33,2.15a5.52,5.52,0,0,1-1.45,4.1,5.58,5.58,0,0,1-4.07,1.42,5.34,5.34,0,0,1-4.25-1.86,7.5,7.5,0,0,1-1.61-5.05V23.33a7.27,7.27,0,0,1,1.62-4.93,5.36,5.36,0,0,1,4.24-1.87,5.57,5.57,0,0,1,4.07,1.42,5.39,5.39,0,0,1,1.46,4.08h-1.74q0-3.88-3.79-3.88a3.61,3.61,0,0,0-3,1.43,6.05,6.05,0,0,0-1.11,3.81v1.67a6,6,0,0,0,1.1,3.74,3.6,3.6,0,0,0,3,1.42,3.94,3.94,0,0,0,2.81-.91,4,4,0,0,0,1-3Z"/></g></g></svg>